<?xml version="1.0" encoding="utf-8"?>
<!-- Generator: Adobe Illustrator 15.1.0, SVG Export Plug-In . SVG Version: 6.00 Build 0)  -->
<!DOCTYPE svg PUBLIC "-//W3C//DTD SVG 1.1//EN" "http://www.w3.org/Graphics/SVG/1.1/DTD/svg11.dtd">
<svg version="1.1" id="Icon" xmlns="http://www.w3.org/2000/svg" xmlns:xlink="http://www.w3.org/1999/xlink" x="0px" y="0px"
	 width="900px" height="60px" viewBox="0 0 900 60" enable-background="new 0 0 900 60" xml:space="preserve">
<linearGradient id="SVGID_1_" gradientUnits="userSpaceOnUse" x1="-19.0991" y1="-159.9004" x2="-19.0991" y2="-207.9004" gradientTransform="matrix(1.25 0 0 -1.25 473.875 -199.875)">
	<stop  offset="0" style="stop-color:#4BD0EF"/>
	<stop  offset="1" style="stop-color:#29AAE1"/>
</linearGradient>
<path fill="url(#SVGID_1_)" d="M480,52.5c0,4.141-3.358,7.5-7.5,7.5h-45c-4.142,0-7.5-3.359-7.5-7.5v-45c0-4.141,3.358-7.5,7.5-7.5
	h45c4.142,0,7.5,3.359,7.5,7.5V52.5z"/>
<path fill="#29AAE1" d="M470.289,16.766c-1.4,0.622-2.904,1.042-4.485,1.23c1.614-0.967,2.85-2.498,3.434-4.321
	c-1.507,0.895-3.179,1.545-4.96,1.895c-1.424-1.517-3.453-2.465-5.7-2.465c-4.311,0-7.808,3.495-7.808,7.809
	c0,0.613,0.069,1.208,0.202,1.78c-6.49-0.326-12.244-3.437-16.096-8.16c-0.672,1.154-1.058,2.495-1.058,3.926
	c0,2.709,1.379,5.1,3.475,6.499c-1.28-0.04-2.484-0.392-3.538-0.977c0,0.033,0,0.066,0,0.099c0,3.783,2.691,6.938,6.264,7.656
	c-0.656,0.179-1.345,0.274-2.058,0.274c-0.504,0-0.992-0.048-1.47-0.139c0.994,3.101,3.878,5.359,7.294,5.424
	c-2.673,2.094-6.04,3.344-9.697,3.344c-0.631,0-1.253-0.038-1.864-0.111c3.456,2.216,7.561,3.51,11.97,3.51
	c14.363,0,22.218-11.898,22.218-22.218c0-0.339-0.008-0.675-0.023-1.011C467.918,19.708,469.242,18.333,470.289,16.766z"/>
<path fill="#FFFFFF" d="M470.289,18.424c-1.4,0.621-2.904,1.041-4.485,1.23c1.614-0.966,2.85-2.498,3.434-4.32
	c-1.507,0.895-3.179,1.545-4.96,1.895c-1.424-1.517-3.453-2.465-5.7-2.465c-4.311,0-7.808,3.495-7.808,7.809
	c0,0.611,0.069,1.208,0.202,1.78c-6.49-0.326-12.244-3.435-16.096-8.159c-0.672,1.154-1.058,2.495-1.058,3.926
	c0,2.708,1.379,5.099,3.475,6.499c-1.28-0.04-2.484-0.391-3.538-0.976c0,0.032,0,0.065,0,0.099c0,3.784,2.691,6.938,6.264,7.656
	c-0.656,0.181-1.345,0.274-2.058,0.274c-0.504,0-0.992-0.049-1.47-0.139c0.994,3.102,3.878,5.359,7.294,5.423
	c-2.673,2.095-6.04,3.344-9.697,3.344c-0.631,0-1.253-0.037-1.864-0.11c3.456,2.215,7.561,3.51,11.97,3.51
	c14.363,0,22.218-11.899,22.218-22.218c0-0.339-0.008-0.675-0.023-1.01C467.918,21.365,469.242,19.99,470.289,18.424z"/>
<linearGradient id="SVGID_2_" gradientUnits="userSpaceOnUse" x1="62.8755" y1="-28.0923" x2="62.8755" y2="-30.854" gradientTransform="matrix(21.7015 0 0 -21.7015 -915.4914 -609.6217)">
	<stop  offset="0" style="stop-color:#4B71B8"/>
	<stop  offset="1" style="stop-color:#293F7E"/>
</linearGradient>
<path fill="url(#SVGID_2_)" d="M479,52.446c0,4.135-3.36,7.491-7.5,7.491h-45c-4.142,0-7.5-3.357-7.5-7.491V7.492
	C419,3.355,422.358,0,426.5,0h45c4.14,0,7.5,3.355,7.5,7.492V52.446z"/>
<path opacity="0.3" fill="#FFFFFF" enable-background="new    " d="M479,48.549v3.897c0,4.135-3.36,7.491-7.5,7.491h-45
	c-4.142,0-7.5-3.357-7.5-7.491v-3.897H479z"/>
<path fill="#FFFFFF" d="M465.606,11.713c0,0-4.633,0-7.708,0c-4.573,0-9.661,1.924-9.661,8.553c0.022,2.311,0,4.523,0,7.014h-5.291
	v8.42h5.455v24.24h10.023v-24.4h6.616l0.599-8.284h-7.387c0,0,0.016-3.685,0-4.755c0-2.62,2.726-2.471,2.89-2.471
	c1.297,0,3.82,0.004,4.468,0v-8.316H465.606z"/>
</svg>
